# xmcd
#
# Track frame offsets:
#	150
#	12106
#	22373
#	31266
#	38807
#	42582
#	49718
#	64622
#	72895
#	83195
#	101086
#	118276
#	131384
#	167939
#	179203
#	219059
#	233251
#	256516
#	268314
#	274916
#	289956
#
# Disc length: 4235 seconds
#
# Revision: 1
# Processed by: cddbd v1.5.2PL0 Copyright (c) Steve Scherf et al.
# Submitted via: EZCDAudioConverter 1.3.4.1
#
DISCID=34108915
DTITLE=Hunter S. Thompson - The Gonzo Tapes 1/5
DYEAR=2008
DGENRE=
TTITLE0=Shit, It's Only 11 O'Clock Here
TTITLE1=We're Up At Bass Lake
TTITLE2=All The Empty Cans And Beer Cartons Are Up On Top Of The Car
TTITLE3=No Notes After Two Days Of This Hell's Angels Thing
TTITLE4=It's August 5, Thursday Night. We're On The Freeway Now
TTITLE5=Was Clovis A Run?
TTITLE6=You Ever Try Peyote, Hunter?
TTITLE7=I'm Not Worried Until The Book Comes Out
TTITLE8=I'm Puttin' You To A Terrible Inconvenience, Hunter
TTITLE9=On My Way Back Now From Taking Terry The Tramp Home
TTITLE10=When I Was Talking To The Frisco Angels The Other Night About Their W
TTITLE10=ife-Swapping...
TTITLE11=Also Like To Get The Idea Down
TTITLE12=What Follows Here Is A Conversation Between Me And Allen Ginsberg And
TTITLE12=Two Police Officers
TTITLE13=Ambulance Rolling, Code 3 (With Ginsberg Humming)
TTITLE14=Tonight Was Saturday, August 7
TTITLE15=They Run It Down That This Girl Was A Poor 19-Year-Old Little Broad
TTITLE16=Porterville Is The One That Time Used, Right?
TTITLE17=Who Was She? Had You Ever Seen Her?
TTITLE18=Do You Remember What Day It Was?
TTITLE19=We're Going To Have To Get Some Wisdom, Some Comments Down
TTITLE20=It's Snowy Outside, Getting Light
EXTD=
EXTT0=
EXTT1=
EXTT2=
EXTT3=
EXTT4=
EXTT5=
EXTT6=
EXTT7=
EXTT8=
EXTT9=
EXTT10=
EXTT11=
EXTT12=
EXTT13=
EXTT14=
EXTT15=
EXTT16=
EXTT17=
EXTT18=
EXTT19=
EXTT20=
PLAYORDER=
